<svg version="1.2" xmlns="http://www.w3.org/2000/svg" viewBox="0 0 1158 1546" width="1158" height="1546">
	<title>The-New-York-Times-Company-2022-Annual-Report-1-pdf-svg</title>
	<defs>
		<clipPath clipPathUnits="userSpaceOnUse" id="cp1">
			<path d="m-1257.3-16933.07h15337.17v19921.58h-15337.17z"/>
		</clipPath>
	</defs>
	<style>
		.s0 { fill: #000000 } 
	</style>
	<g id="Clip-Path: Page 1" clip-path="url(#cp1)">
		<g id="Page 1">
			<path id="Path 30" class="s0" d="m1151.4 955.6c-48.4 132.3-136.1 234.1-264.6 288.8v-288.8l152.7-141.2-152.7-139.9v-198.5c139.9-10.1 236.6-115.7 236.6-245.5 0-170.4-156.4-230.2-245.5-230.2-19 0-40.6 0-71.2 7.6v7.6c11.5 0 28-1.2 34.4-1.2 61 0 108.1 29.2 108.1 87.7 0 44.6-34.4 87.8-96.7 87.8-152.6 0-331.9-127.2-527.8-127.2-172.9 0-292.5 133.6-292.5 269.7 0 133.6 75.1 178.1 153.9 207.4l2.6-7.7c-25.5-16.5-43.3-44.5-43.3-87.8 0-59.7 54.7-110.6 122.1-110.6 164.1 0 428.6 142.4 592.6 142.4h15.3v199.8l-152.6 138.6 152.6 141.2v292.6c-63.6 24.2-129.7 34.4-197.1 34.4-254.4 0-417.1-160.3-417.1-426.2 0-64.9 7.6-125.9 25.4-185.7l127.2-58.5v587.7l259.4-118.3v-601.7l-380.3 176.8c38.2-117 117-201 212.4-248.1l-2.5-6.3c-254.4 57.2-502.4 258.2-502.4 557.2 0 346 282.4 586.4 610.5 586.4 347.2 0 544.3-240.4 546.8-590.3z"/>
		</g>
	</g>
</svg>